# xmcd
# Track frame offsets:
# 150
# 13651
# 28558
# 46237
# 58951
# 78300
# 91237
# 103423
# 115371
# 131999
# 143908
# 159706
#
# Disc length: 2305 seconds
# Revision: 0
# Processed by: cddbd v1.5.1PL0 Copyright (c) Steve Scherf et al.
# Submitted via: VisiTrax 2.9.10.228 - For more info visit www.synapsa.com
#
DISCID=a808ff0c
DTITLE=Levi Mullen - Singer without a song
DYEAR=2005
DGENRE=Country
TTITLE0=The ink was barely dry
TTITLE1=Your memory can't drink as much as me
TTITLE2=Lonely nights
TTITLE3=One more broken heart
TTITLE4=Singer without a song
TTITLE5=She's everything I wanted to be
TTITLE6=She was all over me
TTITLE7=One habit I don't wanna break
TTITLE8=It's okay to call me daddy
TTITLE9=These boots ain't made for walking
TTITLE10=Somethin' bout the moon
TTITLE11=Where's the country in our country music
EXTD=
EXTT0=
EXTT1=
EXTT2=
EXTT3=
EXTT4=
EXTT5=
EXTT6=
EXTT7=
EXTT8=
EXTT9=
EXTT10=
EXTT11=
PLAYORDER=
